<svg width="82" height="95" xmlns="http://www.w3.org/2000/svg" viewBox="0 0 82 95"><path fill="#3d3d3d"
 d="M55.59,56.87l-1.11,1.22c-.14.5-.31,1-.49,1.45l17.89,3.3ZM46.27,40.54l3.15-17.07L43.16,40.56a13.37,13.37,0,0,1,1.5.32ZM35.67,68.21,32.51,85.3l6.28-17.12c-.48-.08-1-.19-1.45-.32Zm-9.3-16.29,1.15-1.27a12.78,12.78,0,0,1,.47-1.4L10.05,45.93Z"/><path fill="#3d3d3d" d="M68.06,38.93,44.53,43.79A11.16,11.16,0,0,0,30.09,52L13.94,69.81,37.47,65A11.14,11.14,0,0,0,51.9,56.72ZM44.28,60.11a6.61,6.61,0,1,1,2.46-9A6.63,6.63,0,0,1,44.28,60.11Z"/><path fill="#3d3d3d" d="M78.13,38a2.94,2.94,0,1,0-5.38,2.38A34.72,34.72,0,0,1,10.84,71.57C1.36,55,7.31,34,23.79,24.22a7.11,7.11,0,0,1,1.06-.5l.12,0c.3-.11.52-.18.56-.21l0,0A12.16,12.16,0,1,0,15.3,23,40.58,40.58,0,1,0,78.13,38ZM14.91,10.54a6.29,6.29,0,1,1,4.41,7.72A6.3,6.3,0,0,1,14.91,10.54Z"/></svg>