<svg id="Layer_1" data-name="Layer 1" xmlns="http://www.w3.org/2000/svg" viewBox="0 0 350.7 289.65"><defs><style>.cls-1{fill:#424852;}</style></defs><title>crown</title><path class="cls-1" d="M89.62,90.1a11.85,11.85,0,1,0-6.4,1.9c.28,0,.55-.06.82-.08,2.1,20.39,3.64,35.71,4.89,48.7,4.76,2.62,9.25,4.12,13.09,4.12l1.56-.08c5.4-.62,9.65-3.11,13.57-8.23A368.64,368.64,0,0,1,89.62,90.1Z"/><path class="cls-1" d="M267.48,68.24a11.86,11.86,0,0,0-6.4,21.86,366.1,366.1,0,0,1-27.53,46.32c3.92,5.12,8.18,7.62,13.57,8.24l1.56.08c3.85,0,8.33-1.5,13.09-4.12,1.25-13,2.79-28.31,4.9-48.7.27,0,.53.08.81.08a11.88,11.88,0,1,0,0-23.76Z"/><path class="cls-1" d="M289.89,253.65H60.81A17.41,17.41,0,0,0,43.35,271v1.31a17.4,17.4,0,0,0,17.46,17.35H289.89a17.4,17.4,0,0,0,17.46-17.35V271A17.41,17.41,0,0,0,289.89,253.65Z"/><path class="cls-1" d="M333.28,61.78a17.37,17.37,0,0,0-8.49,32.55c-7,11.1-15.19,23.53-21.77,32.3-14.78,19.7-37.31,38.28-57.95,35.91-22.59-2.59-31.81-22.4-38.15-39.35-9.52-25.47-24.86-72.95-29.85-88.51a17.43,17.43,0,1,0-3.43,0c-5,15.56-20.34,63-29.85,88.51-6.33,16.95-15.56,36.76-38.16,39.35C85,164.91,62.46,146.33,47.69,126.63c-6.58-8.77-14.74-21.2-21.77-32.3a17.3,17.3,0,1,0-8.49,2.3,17,17,0,0,0,4.64-.71c16.44,38.82,43.65,108.75,40.67,139.73H288c-3-31,24.22-100.92,40.66-139.73a17,17,0,0,0,4.65.71,17.43,17.43,0,0,0,0-34.85Z"/></svg>