<svg xmlns="http://www.w3.org/2000/svg" width="35" height="20" viewBox="0 0 35 20"><path fill="#2cb7b2"
 d="M32,13.93a3,3,0,1,0,3,3A3,3,0,0,0,32,13.93Z"/><path fill="#2cb7b2" d="M27.79,9.83a3,3,0,0,0-4.23.75v0a1,1,0,0,1-1.4.23h0a1,1,0,0,1-.24-1.41h0a3,3,0,1,0-5-3.48l-4.17,6h0a1,1,0,0,1-1.4.25h0a1,1,0,0,1-.24-1.41l-.09.12,4.26-6.09a3,3,0,0,0,.51-2.26A3,3,0,0,0,10.3,1.29L.55,15.22a3,3,0,1,0,5,3.49l3.26-4.66a1,1,0,0,1,1.4-.25h0a1,1,0,0,1,.25,1.4h0a3,3,0,0,0,5,3.48l4.17-6A1,1,0,0,1,21,12.48h0a1,1,0,0,1,.26,1.39l-.94,1.35a3,3,0,1,0,5,3.48l3.25-4.64A3,3,0,0,0,27.79,9.83Z"/></svg>