<svg width="100" height="100" xmlns="http://www.w3.org/2000/svg" viewBox="0 0 100 100">
  <path fill="#3d3d3d"
  d="M30.77,60.77H27.58V72.42H39.23V69.23H30.77ZM27.58,39.23h3.19V30.77h8.46V27.58H27.58Zm41.65,0h3.19V27.58H60.77v3.19h8.46Zm3.19,21.54H69.23v8.46H60.77v3.19H72.42ZM95.59,49A45.64,45.64,0,0,0,51,4.41V0H49V4.41A45.65,45.65,0,0,0,4.41,49H0v2H4.41A45.65,45.65,0,0,0,49,95.59V100h2V95.59A45.64,45.64,0,0,0,95.59,51H100V49Zm-5.33,2a40.06,40.06,0,0,1-2.14,12l-3.78-1.29c-.18.54-.38,1.09-.59,1.62l3.71,1.47a40.64,40.64,0,0,1-6.09,10.44l-3.11-2.5c-.35.44-.73.89-1.11,1.32l3,2.64a40.62,40.62,0,0,1-9.27,7.75L68.79,81c-.5.3-1,.59-1.5.86l1.91,3.52a40.09,40.09,0,0,1-11.38,4.11l-.77-3.94c-.56.11-1.13.21-1.7.3l.58,4a42,42,0,0,1-4.93.41v-33H49v33a39.9,39.9,0,0,1-5.16-.45l.61-4c-.57-.09-1.14-.19-1.7-.3L42,89.48A39.93,39.93,0,0,1,30.61,85.3l1.93-3.51c-.5-.28-1-.57-1.49-.87L29,84.33a40.84,40.84,0,0,1-9.23-7.8l3-2.63c-.38-.43-.75-.88-1.11-1.33l-3.13,2.49a40.39,40.39,0,0,1-6-10.48l3.73-1.45c-.21-.54-.4-1.08-.59-1.63l-3.8,1.27A40.21,40.21,0,0,1,9.74,51h33V49h-33a39.85,39.85,0,0,1,2.13-12l3.79,1.29c.18-.55.38-1.09.59-1.62l-3.72-1.47a40.54,40.54,0,0,1,6.08-10.45l3.11,2.5c.36-.44.73-.88,1.11-1.31l-3-2.65a40.4,40.4,0,0,1,9.27-7.76L31.19,19c.49-.3,1-.59,1.5-.86l-1.92-3.52a39.75,39.75,0,0,1,11.37-4.12l.78,3.93c.56-.11,1.13-.21,1.7-.3l-.59-4a40.79,40.79,0,0,1,5-.42v33h2v-33a39.43,39.43,0,0,1,5.12.44l-.6,4c.56.09,1.14.19,1.69.3l.8-3.92a39.7,39.7,0,0,1,11.35,4.16l-1.93,3.5c.51.27,1,.57,1.5.86L71,15.64a40.89,40.89,0,0,1,9.24,7.79l-3,2.63c.38.43.75.88,1.11,1.32l3.11-2.48a40.2,40.2,0,0,1,6,10.47l-3.71,1.44c.21.54.4,1.08.59,1.63l3.78-1.27A39.91,39.91,0,0,1,90.26,49h-33v2Z"/>
</svg>